<?xml version="1.0" standalone="no"?>
<!DOCTYPE svg PUBLIC "-//W3C//DTD SVG 20010904//EN"
 "http://www.w3.org/TR/2001/REC-SVG-20010904/DTD/svg10.dtd">
<svg version="1.0" xmlns="http://www.w3.org/2000/svg"
 width="700.000000pt" height="700.000000pt" viewBox="0 0 700.000000 700.000000"
 preserveAspectRatio="xMidYMid meet">
<metadata>
Created by potrace 1.14, written by Peter Selinger 2001-2017
</metadata>
<g transform="translate(0.000000,700.000000) scale(0.100000,-0.100000)"
fill="#000000" stroke="none">
<path d="M3464 6872 c-15 -14 -25 -47 -39 -123 -9 -57 -19 -113 -21 -124 -2
-11 -6 -33 -9 -50 -3 -16 -8 -43 -11 -60 -24 -129 -14 -158 61 -170 26 -3 57
-8 68 -11 12 -2 61 -11 110 -20 68 -12 87 -20 87 -33 0 -14 -20 -16 -192 -15
-224 2 -372 -12 -593 -57 -119 -24 -338 -88 -410 -119 -116 -51 -140 -58 -148
-43 -5 8 -7 17 -4 20 3 2 61 37 129 77 94 54 125 78 132 99 7 19 7 34 0 45 -6
9 -55 94 -108 187 -99 174 -133 217 -165 212 -11 -2 -146 -77 -302 -167 -156
-90 -383 -221 -504 -291 -142 -81 -225 -136 -235 -152 -17 -30 -14 -38 94
-222 17 -28 35 -59 41 -70 6 -11 25 -46 43 -77 64 -111 68 -110 300 30 57 34
77 41 85 32 13 -13 17 -8 -143 -140 -137 -112 -320 -302 -439 -456 -70 -90
-218 -327 -257 -411 -19 -42 -40 -55 -50 -30 -2 7 16 68 41 134 51 137 56 176
22 197 -29 20 -410 156 -434 156 -34 0 -52 -23 -81 -105 -88 -245 -255 -703
-262 -720 -5 -11 -32 -83 -60 -160 -70 -194 -71 -191 95 -250 50 -18 140 -50
200 -72 112 -41 137 -42 163 -11 6 8 34 77 62 153 27 76 51 139 53 141 1 2 9
-1 17 -6 11 -7 11 -20 -4 -87 -24 -106 -24 -105 -32 -160 -3 -26 -8 -57 -10
-68 -20 -106 -26 -495 -11 -655 10 -104 43 -298 63 -366 4 -15 0 -23 -12 -28
-9 -3 -18 -5 -19 -4 -2 2 -24 61 -50 133 -25 71 -52 136 -58 143 -25 31 -51
29 -162 -11 -60 -22 -152 -55 -202 -73 -174 -62 -170 -39 -63 -329 50 -134
114 -311 180 -495 149 -413 148 -410 194 -410 22 0 46 8 294 100 191 71 186
60 116 254 -37 102 -51 153 -44 160 13 13 20 5 60 -69 88 -163 174 -299 264
-415 28 -36 53 -67 56 -70 3 -3 34 -38 69 -78 74 -86 152 -163 235 -236 32
-28 64 -56 70 -62 6 -6 39 -31 73 -56 56 -41 61 -47 48 -64 -13 -18 -14 -18
-32 -1 -11 9 -22 17 -25 17 -4 0 -52 27 -108 59 -99 58 -126 65 -155 41 -7 -6
-64 -99 -126 -207 -132 -231 -132 -224 -24 -291 39 -24 76 -46 84 -49 8 -4 76
-42 150 -86 128 -74 156 -90 264 -151 23 -13 132 -76 242 -140 110 -64 211
-119 223 -123 39 -10 70 33 234 328 14 25 31 55 38 66 28 44 2 77 -110 139
-19 10 -42 24 -50 30 -8 7 -38 24 -67 39 -35 18 -50 31 -46 41 7 19 12 19 105
-20 122 -50 298 -108 371 -122 10 -2 27 -6 37 -9 44 -14 224 -45 350 -60 58
-7 189 -12 292 -11 168 1 187 -1 191 -16 5 -19 13 -17 -168 -49 -169 -30 -170
-31 -136 -218 11 -58 27 -150 37 -204 20 -121 36 -141 104 -133 25 3 92 14
150 25 58 11 125 23 150 26 25 4 54 9 65 12 19 4 79 14 155 28 19 3 85 14 145
25 61 10 126 22 145 25 19 3 42 8 50 10 8 2 33 6 55 10 22 3 65 10 95 15 30 6
69 13 85 15 17 3 40 17 52 30 23 26 23 22 -2 163 -8 45 -22 121 -30 170 -31
175 -40 187 -121 177 -26 -3 -49 -7 -53 -9 -3 -2 -26 -7 -51 -10 -25 -3 -56
-8 -70 -11 -89 -18 -100 -18 -100 1 0 15 17 24 78 42 240 72 538 218 747 365
82 58 217 163 260 203 17 15 42 38 57 52 20 18 30 22 43 14 15 -8 6 -22 -65
-108 -46 -54 -89 -107 -98 -116 -24 -28 -18 -68 14 -97 16 -14 83 -71 149
-126 66 -55 129 -108 140 -118 27 -25 64 -39 86 -32 10 4 74 72 141 153 68 81
125 149 128 152 3 3 52 61 110 130 166 199 310 371 357 425 67 77 62 91 -69
202 -51 42 -95 80 -98 83 -3 4 -40 34 -82 68 -57 44 -84 60 -100 57 -25 -5
-47 -27 -157 -157 -40 -49 -77 -88 -81 -88 -25 0 -14 29 47 127 199 322 348
746 389 1105 5 48 10 58 25 58 18 0 19 -10 19 -149 0 -212 -22 -196 270 -197
214 -1 233 1 256 18 l24 19 0 595 0 595 -23 22 c-22 23 -26 23 -255 22 -295 0
-272 17 -272 -205 0 -142 -2 -158 -17 -156 -17 3 -18 7 -28 86 -7 55 -13 96
-22 135 -3 17 -7 40 -9 52 -1 11 -5 30 -8 41 -4 11 -8 29 -10 39 -47 233 -196
596 -337 822 -51 80 -58 97 -46 108 12 12 20 7 53 -34 38 -48 71 -85 129 -150
32 -36 59 -46 87 -32 10 5 50 37 91 72 40 34 95 80 122 102 100 81 145 128
145 149 0 12 -10 36 -22 53 -19 25 -384 463 -449 538 -10 11 -46 54 -81 95
-34 41 -65 77 -68 80 -3 3 -21 25 -41 50 -20 25 -47 56 -59 70 -12 14 -25 30
-28 37 -13 23 -63 23 -96 1 -17 -12 -33 -25 -36 -28 -3 -3 -71 -60 -151 -128
-101 -83 -148 -130 -151 -147 -5 -24 6 -46 48 -95 133 -153 154 -183 143 -197
-12 -13 -33 2 -99 67 -18 19 -136 115 -190 156 -220 167 -533 330 -796 415
-85 27 -100 35 -96 51 3 12 11 16 26 13 83 -19 271 -45 287 -40 25 8 38 34 49
98 11 61 46 257 55 307 16 86 0 124 -55 133 -14 3 -41 8 -60 11 -19 3 -111 20
-205 36 -93 17 -183 33 -200 36 -16 2 -55 9 -85 14 -30 5 -71 12 -90 15 -19 3
-42 8 -50 10 -8 2 -35 7 -60 10 -25 3 -52 8 -61 11 -9 2 -32 7 -50 9 -19 3
-72 12 -119 21 -148 27 -163 28 -186 6z"/>
</g>
</svg>
