<svg width="200mm" height="200mm" version="1.1" viewBox="0 0 200 200" xmlns="http://www.w3.org/2000/svg" xmlns:xlink="http://www.w3.org/1999/xlink">
 <defs>
  <radialGradient id="radialGradient1150" cx="87.387" cy="34.372" r="95.421" gradientTransform="matrix(-.36094 .83073 -.85363 -.37089 162.62 50.079)" gradientUnits="userSpaceOnUse">
   <stop stop-color="#fafafa" offset="0"/>
   <stop stop-color="#b5b5b5" offset="1"/>
  </radialGradient>
  <radialGradient id="radialGradient1166" cx="110.79" cy="94.733" r="70.549" gradientTransform="matrix(.80393 1.0252 -.83041 .65117 91.257 -75.037)" gradientUnits="userSpaceOnUse">
   <stop stop-color="#fff" offset="0"/>
   <stop stop-color="#dcdcdc" offset="1"/>
  </radialGradient>
 </defs>
 <g>
  <ellipse cx="100" cy="100" rx="70.549" ry="74.448" fill="url(#radialGradient1166)"/>
  <path d="m100.16 5.0115-2.0684 11.735 10.191 1.797-0.80253 4.5496a77.274 77.274 0 0 0-7.5117-0.36637 77.274 77.274 0 0 0-32.908 7.3575l-2.3301-4.0359 8.5274-4.9238-5.958-10.319-19.28 11.132-8.9616 5.1738 5.958 10.319 8.9616-5.1738 2.3097 4.001a77.274 77.274 0 0 0-26.468 31.337l-4.38-1.5944 3.3681-9.2524-11.198-4.0747-3.3672 9.2524-4.2463 11.668-3.5397 9.7244 11.197 4.0747 3.5397-9.7244 4.3413 1.5799a77.274 77.274 0 0 0-2.8389 20.753 77.274 77.274 0 0 0 2.7051 20.266l-4.38 1.5944-3.3672-9.2524-11.197 4.0757 3.3672 9.2524 4.2472 11.668 3.5387 9.7244 11.197-4.0757-3.5387-9.7244 4.3413-1.5799a77.274 77.274 0 0 0 26.264 31.508l-2.3301 4.0359-8.5265-4.9228-5.958 10.319 8.5274 4.9238 19.714 11.382 5.958-10.319-8.9617-5.1738 2.3097-4.0011a77.274 77.274 0 0 0 33.362 7.5727 77.274 77.274 0 0 0 7.0106-0.31887l0.8093 4.5904-9.6963 1.7098 2.0684 11.734 9.6973-1.7098 12.228-2.1556 10.191-1.797-2.0693-11.735-10.191 1.797-0.80253-4.5496a77.274 77.274 0 0 0 35.591-20.394l3.5697 2.9959-6.3282 7.5427 9.1274 7.659 6.3292-7.5426 7.9808-9.5122 6.652-7.9265-9.1274-7.66-6.652 7.9275-3.5387-2.9698a77.274 77.274 0 0 0 14.154-38.499h4.6611v9.8466h11.915v-32.611h-11.915v10.348h-4.6204a77.274 77.274 0 0 0-13.903-38.591l3.5698-2.9959 6.3292 7.5427 9.1274-7.659-6.3292-7.5427-7.9808-9.5122-6.6519-7.9265-9.1274 7.659 6.651 7.9265-3.5387 2.9698a77.274 77.274 0 0 0-35.457-20.625l0.80931-4.5903 9.6964 1.7098 2.0693-11.734-9.6963-1.7097-12.228-2.1566zm-3.4651 31.894a12.406 12.406 0 0 1 0.08332 0 12.406 12.406 0 0 1 12.406 12.406 12.406 12.406 0 0 1-12.406 12.406 12.406 12.406 0 0 1-12.406-12.406 12.406 12.406 0 0 1 12.323-12.406zm45.455 17.78a8.0955 8.0955 0 0 1 8.0961 8.0961 8.0955 8.0955 0 0 1-8.0961 8.0951 8.0955 8.0955 0 0 1-8.0951-8.0951 8.0955 8.0955 0 0 1 8.0951-8.0961zm-79.088 10.903a14.562 14.562 0 0 1 0.04264 0 14.562 14.562 0 0 1 14.562 14.562 14.562 14.562 0 0 1-14.562 14.562 14.562 14.562 0 0 1-14.562-14.562 14.562 14.562 0 0 1 14.519-14.562zm38.596 19.524a12.406 12.406 0 0 1 0.0833 0 12.406 12.406 0 0 1 12.406 12.406 12.406 12.406 0 0 1-12.406 12.406 12.406 12.406 0 0 1-12.406-12.406 12.406 12.406 0 0 1 12.323-12.406zm36.156 0a12.406 12.406 0 0 1 0.0833 0 12.406 12.406 0 0 1 12.406 12.406 12.406 12.406 0 0 1-12.406 12.406 12.406 12.406 0 0 1-12.406-12.406 12.406 12.406 0 0 1 12.323-12.406zm-82.579 22.395a15.178 15.178 0 0 1 0.07065 0 15.178 15.178 0 0 1 15.177 15.177 15.178 15.178 0 0 1-15.177 15.178 15.178 15.178 0 0 1-15.177-15.178 15.178 15.178 0 0 1 15.107-15.177zm81.161 18.723a12.406 12.406 0 0 1 0.0833 0 12.406 12.406 0 0 1 12.406 12.406 12.406 12.406 0 0 1-12.406 12.406 12.406 12.406 0 0 1-12.406-12.406 12.406 12.406 0 0 1 12.323-12.406zm-39.732 13.097a9.943 9.943 0 0 1 0.11544 0 9.943 9.943 0 0 1 9.9425 9.9425 9.943 9.943 0 0 1-9.9425 9.9435 9.943 9.943 0 0 1-9.9435-9.9435 9.943 9.943 0 0 1 9.8282-9.9425z" fill="url(#radialGradient1150)" stroke="#676767" stroke-linejoin="round" stroke-width="3.7512"/>
 </g>
</svg>
